<mxfile host="app.diagrams.net" modified="2023-05-04T11:52:55.392Z" agent="Mozilla/5.0 (Macintosh; Intel Mac OS X 10_15_7) AppleWebKit/537.36 (KHTML, like Gecko) Chrome/112.0.0.0 Safari/537.36" version="21.2.7" etag="qjhrLPFbT4JF6yN02E0x" type="github">
  <diagram name="第 1 页" id="ftTf1K-sWwB1FviVxjeV">
    <mxGraphModel>
      <root>
        <mxCell id="0" />
        <mxCell id="1" parent="0" />
      </root>
    </mxGraphModel>
  </diagram>
</mxfile>
